# xmcd CD database file
#
# Track frame offsets:
#	150
#	13329
#	20506
#	32020
#	44330
#	54582
#	66695
#	81183
#	100954
#	113207
#	128079
#	145924
#	158877
#	172660
#	185679
#	200627
#	213682
#
# Disc length: 3040 seconds
#
# Revision: 0
# Processed by: cddbd v1.5.2PL0 Copyright (c) Steve Scherf et al.
# Submitted via: cdripper 1,0,31,311
#
DISCID=fb0bde11
DTITLE=Wanda Jackson - Rockabilly Queen
DYEAR=2011
DGENRE=Country
TTITLE0=Good Rockin Tonight
TTITLE1=I Gotta Know (Live 1960)
TTITLE2=Heartbreak Hotel
TTITLE3=Crazy
TTITLE4=Blue Moon of Kentucky
TTITLE5=Baby, Lets Play House
TTITLE6=Love Me Tender
TTITLE7=Whose Bed Have Your Boots Been Under?
TTITLE8=Trying To Get To You
TTITLE9=I Wore Elvis' Ring
TTITLE10=Mystery Train
TTITLE11=I Dont Care If The Sun Don't Shine
TTITLE12=Too Much
TTITLE13=I Forgot To Remember To Forget Him
TTITLE14=Give Me The Right
TTITLE15=Ain't That Loving You Baby
TTITLE16=You're Right, I'm Left, He's Gone
EXTD=YEAR: 2011
EXTT0=
EXTT1=
EXTT2=
EXTT3=
EXTT4=
EXTT5=
EXTT6=
EXTT7=
EXTT8=
EXTT9=
EXTT10=
EXTT11=
EXTT12=
EXTT13=
EXTT14=
EXTT15=
EXTT16=
PLAYORDER=
